<svg width="273" height="81" viewBox="0 0 273 81" fill="none" xmlns="http://www.w3.org/2000/svg">
<g clip-path="url(#clip0_2273_4)">
<rect x="1.25" y="18.25" width="269.5" height="61.5" stroke="white" stroke-width="0.5"/>
<path d="M29.6401 62.25C29.6401 64.65 29.2401 66.775 28.4401 68.625C29.5401 68.775 30.7901 68.85 32.1901 68.85V74.925C28.8401 74.925 25.9901 74.525 23.6401 73.725C21.9401 74.525 19.9651 74.925 17.7151 74.925C13.9151 74.925 10.9651 73.725 8.86514 71.325C6.76514 68.875 5.71514 65.825 5.71514 62.175V36.825C5.71514 32.575 6.71514 29.325 8.71514 27.075C10.7651 24.825 13.7901 23.7 17.7901 23.7C25.6901 23.7 29.6401 28.075 29.6401 36.825V62.25ZM22.2901 65.85C22.7401 64.95 22.9651 63.775 22.9651 62.325V36.3C22.9651 34.3 22.5151 32.775 21.6151 31.725C20.7651 30.625 19.4901 30.075 17.7901 30.075C16.0901 30.075 14.7651 30.625 13.8151 31.725C12.9151 32.775 12.4651 34.275 12.4651 36.225V62.325C12.4651 65.775 13.8151 67.75 16.5151 68.25C15.0651 65.85 14.3401 62.9 14.3401 59.4H20.4151C20.4151 62.25 21.0401 64.4 22.2901 65.85ZM19.2901 74.925C16.1401 74.925 16.1401 74.925 19.2901 74.925V74.925ZM56.5147 57.15V62.85C56.5147 66.9 55.5147 70.025 53.5147 72.225C51.5147 74.375 48.5897 75.45 44.7397 75.45C37.0897 75.45 33.2647 71.3 33.2647 63V60.525H39.6397V63.375C39.6397 67.275 41.2897 69.225 44.5897 69.225C48.0897 69.225 49.8397 67.25 49.8397 63.3V56.7C49.8397 55 49.4147 53.725 48.5647 52.875C47.7147 51.975 46.2647 51.525 44.2147 51.525H41.0647V45.9H44.4397C46.3897 45.9 47.7147 45.475 48.4147 44.625C49.1647 43.775 49.5397 42.55 49.5397 40.95V36.3C49.5397 34.75 49.1147 33.5 48.2647 32.55C47.4647 31.55 46.2397 31.05 44.5897 31.05C43.0397 31.05 41.8147 31.55 40.9147 32.55C40.0647 33.5 39.6397 34.775 39.6397 36.375V39.3H33.2647V36.975C33.2647 33.225 34.2647 30.25 36.2647 28.05C38.3147 25.85 41.1147 24.75 44.6647 24.75C48.3147 24.75 51.0647 25.825 52.9147 27.975C54.8147 30.125 55.7647 32.675 55.7647 35.625V40.275C55.7647 45.025 54.0147 47.7 50.5147 48.3V48.6C52.2647 48.95 53.6897 49.825 54.7897 51.225C55.9397 52.575 56.5147 54.55 56.5147 57.15ZM94.2087 75H86.3337L74.9337 36.45H74.6337C74.7837 40.1 74.8587 43.6 74.8587 46.95V75H68.9337V25.2H77.7837L88.2087 60.975H88.5087C88.3587 56.225 88.2837 52.2 88.2837 48.9V25.2H94.2087V75ZM116.904 75H98.3038V25.2H116.304V31.275H104.904V45.825H115.329V51.975H104.904V68.925H116.904V75ZM134.603 75H127.928V31.275H119.603V25.2H143.078V31.275H134.603V75ZM159.774 75H151.299L145.299 25.2H151.749L156.099 63.075H156.399L161.049 25.2H168.624L173.424 63.075H173.724L177.999 25.2H184.374L178.374 75H169.899L164.949 36.45H164.649L159.774 75ZM210.179 37.725V63C210.179 67.1 209.179 70.2 207.179 72.3C205.179 74.4 202.279 75.45 198.479 75.45C194.629 75.45 191.679 74.375 189.629 72.225C187.579 70.025 186.554 66.9 186.554 62.85V37.575C186.554 33.525 187.579 30.375 189.629 28.125C191.729 25.875 194.654 24.75 198.404 24.75C202.154 24.75 205.054 25.9 207.104 28.2C209.154 30.5 210.179 33.675 210.179 37.725ZM203.579 63.375V37.125C203.579 33.075 201.829 31.05 198.329 31.05C196.729 31.05 195.479 31.575 194.579 32.625C193.679 33.625 193.229 35.1 193.229 37.05V63.3C193.229 67.25 194.954 69.225 198.404 69.225C201.854 69.225 203.579 67.275 203.579 63.375ZM220.626 75H214.026V25.2H227.901C231.251 25.2 233.651 26.05 235.101 27.75C236.601 29.4 237.351 31.875 237.351 35.175V42C237.351 46.55 235.651 49.25 232.251 50.1V50.4C235.751 51.05 237.501 53.725 237.501 58.425V75H230.901V57.9C230.901 56.25 230.601 55.075 230.001 54.375C229.401 53.675 228.301 53.325 226.701 53.325H220.626V75ZM230.826 42.6V35.925C230.826 32.825 229.351 31.275 226.401 31.275H220.626V47.7H226.476C229.376 47.7 230.826 46 230.826 42.6ZM265.948 75H259.123L251.998 53.475H251.698L248.098 60.525V75H241.273V25.2H248.098V47.55H248.398L259.198 25.2H266.023L256.648 44.925L265.948 75Z" fill="#E80C88"/>
<path d="M172.043 15H170.283L169.763 11.88H167.323L166.843 15H165.103L167.363 1.72H169.783L172.043 15ZM168.503 4.52L167.563 10.34H169.523L168.583 4.52H168.503ZM174.645 15H172.845V1.72H177.745V3.34H174.645V7.42H177.325V9.02H174.645V15ZM180.465 15H178.665V1.72H183.565V3.34H180.465V7.42H183.145V9.02H180.465V15ZM186.285 15H184.485V1.72H186.285V15ZM192.436 15H187.356V1.72H189.156V13.36H192.436V15ZM195.133 15H193.333V1.72H195.133V15ZM202.844 15H201.084L200.564 11.88H198.124L197.644 15H195.904L198.164 1.72H200.584L202.844 15ZM199.304 4.52L198.364 10.34H200.324L199.384 4.52H199.304ZM206.001 15H204.221V3.34H202.001V1.72H208.261V3.34H206.001V15ZM214.113 15H209.153V1.72H213.953V3.34H210.913V7.22H213.693V8.86H210.913V13.38H214.113V15ZM224.096 15H221.996L218.956 4.72H218.876C218.916 5.69333 218.936 6.62667 218.936 7.52V15H217.356V1.72H219.716L222.496 11.26H222.576C222.536 9.99333 222.516 8.92 222.516 8.04V1.72H224.096V15ZM230.148 15H225.188V1.72H229.988V3.34H226.948V7.22H229.728V8.86H226.948V13.38H230.148V15ZM234.868 15H233.088V3.34H230.868V1.72H237.128V3.34H234.868V15ZM241.58 15H239.32L237.72 1.72H239.44L240.6 11.82H240.68L241.92 1.72H243.94L245.22 11.82H245.3L246.44 1.72H248.14L246.54 15H244.28L242.96 4.72H242.88L241.58 15ZM255.022 5.06V11.8C255.022 12.8933 254.755 13.72 254.222 14.28C253.688 14.84 252.915 15.12 251.902 15.12C250.875 15.12 250.088 14.8333 249.542 14.26C248.995 13.6733 248.722 12.84 248.722 11.76V5.02C248.722 3.94 248.995 3.1 249.542 2.5C250.102 1.9 250.882 1.6 251.882 1.6C252.882 1.6 253.655 1.90667 254.202 2.52C254.748 3.13333 255.022 3.98 255.022 5.06ZM253.262 11.9V4.9C253.262 3.82 252.795 3.28 251.862 3.28C251.435 3.28 251.102 3.42 250.862 3.7C250.622 3.96667 250.502 4.36 250.502 4.88V11.88C250.502 12.9333 250.962 13.46 251.882 13.46C252.802 13.46 253.262 12.94 253.262 11.9ZM257.808 15H256.048V1.72H259.748C260.641 1.72 261.281 1.94667 261.668 2.4C262.068 2.84 262.268 3.5 262.268 4.38V6.2C262.268 7.41333 261.814 8.13333 260.908 8.36V8.44C261.841 8.61333 262.308 9.32667 262.308 10.58V15H260.548V10.44C260.548 10 260.468 9.68667 260.308 9.5C260.148 9.31333 259.854 9.22 259.428 9.22H257.808V15ZM260.528 6.36V4.58C260.528 3.75333 260.134 3.34 259.348 3.34H257.808V7.72H259.368C260.141 7.72 260.528 7.26667 260.528 6.36ZM269.893 15H268.073L266.173 9.26H266.093L265.133 11.14V15H263.313V1.72H265.133V7.68H265.213L268.093 1.72H269.913L267.413 6.98L269.893 15Z" fill="white"/>
</g>
<defs>
<clipPath id="clip0_2273_4">
<rect width="273" height="81" fill="white"/>
</clipPath>
</defs>
</svg>
