<svg width="686" height="210" viewBox="0 0 686 210" fill="none" xmlns="http://www.w3.org/2000/svg">
<path d="M9.85495 17H8.09495L7.57495 13.88H5.13495L4.65495 17H2.91495L5.17495 3.72H7.59495L9.85495 17ZM6.31495 6.52L5.37495 12.34H7.33495L6.39495 6.52H6.31495ZM12.4564 17H10.6564V3.72H15.5564V5.34H12.4564V9.42H15.1364V11.02H12.4564V17ZM18.2767 17H16.4767V3.72H21.3767V5.34H18.2767V9.42H20.9567V11.02H18.2767V17ZM24.097 17H22.297V3.72H24.097V17ZM30.2481 17H25.1681V3.72H26.9681V15.36H30.2481V17ZM32.9446 17H31.1446V3.72H32.9446V17ZM40.6557 17H38.8957L38.3757 13.88H35.9357L35.4557 17H33.7157L35.9757 3.72H38.3957L40.6557 17ZM37.1157 6.52L36.1757 12.34H38.1357L37.1957 6.52H37.1157ZM43.8128 17H42.0328V5.34H39.8128V3.72H46.0728V5.34H43.8128V17ZM51.9249 17H46.9649V3.72H51.765V5.34H48.7249V9.22H51.5049V10.86H48.7249V15.38H51.9249V17ZM61.9081 17H59.8081L56.7681 6.72H56.6881C56.7281 7.69333 56.7481 8.62667 56.7481 9.52V17H55.1681V3.72H57.5281L60.3081 13.26H60.3881C60.3481 11.9933 60.3281 10.92 60.3281 10.04V3.72H61.9081V17ZM67.9601 17H63.0001V3.72H67.8001V5.34H64.7601V9.22H67.5401V10.86H64.7601V15.38H67.9601V17ZM72.6799 17H70.8999V5.34H68.6799V3.72H74.9399V5.34H72.6799V17ZM79.3921 17H77.1321L75.5321 3.72H77.2521L78.4121 13.82H78.4921L79.7321 3.72H81.7521L83.0321 13.82H83.1121L84.2521 3.72H85.9521L84.3521 17H82.0921L80.7721 6.72H80.6921L79.3921 17ZM92.8334 7.06V13.8C92.8334 14.8933 92.5667 15.72 92.0334 16.28C91.5001 16.84 90.7267 17.12 89.7134 17.12C88.6867 17.12 87.9001 16.8333 87.3534 16.26C86.8067 15.6733 86.5334 14.84 86.5334 13.76V7.02C86.5334 5.94 86.8067 5.1 87.3534 4.5C87.9134 3.9 88.6934 3.6 89.6934 3.6C90.6934 3.6 91.4667 3.90667 92.0134 4.52C92.5601 5.13333 92.8334 5.98 92.8334 7.06ZM91.0734 13.9V6.9C91.0734 5.82 90.6067 5.28 89.6734 5.28C89.2467 5.28 88.9134 5.42 88.6734 5.7C88.4334 5.96667 88.3134 6.36 88.3134 6.88V13.88C88.3134 14.9333 88.7734 15.46 89.6934 15.46C90.6134 15.46 91.0734 14.94 91.0734 13.9ZM95.6195 17H93.8595V3.72H97.5595C98.4528 3.72 99.0928 3.94667 99.4795 4.4C99.8795 4.84 100.079 5.5 100.079 6.38V8.2C100.079 9.41333 99.6261 10.1333 98.7195 10.36V10.44C99.6528 10.6133 100.119 11.3267 100.119 12.58V17H98.3595V12.44C98.3595 12 98.2795 11.6867 98.1195 11.5C97.9595 11.3133 97.6661 11.22 97.2395 11.22H95.6195V17ZM98.3395 8.36V6.58C98.3395 5.75333 97.9461 5.34 97.1595 5.34H95.6195V9.72H97.1795C97.9528 9.72 98.3395 9.26667 98.3395 8.36ZM107.705 17H105.885L103.985 11.26H103.905L102.945 13.14V17H101.125V3.72H102.945V9.68H103.025L105.905 3.72H107.725L105.225 8.98L107.705 17Z" fill="white"/>
<path d="M262.488 173.9C262.488 178.06 261.795 181.743 260.408 184.95C262.315 185.21 264.482 185.34 266.908 185.34V195.87C261.102 195.87 256.162 195.177 252.088 193.79C249.142 195.177 245.718 195.87 241.818 195.87C235.232 195.87 230.118 193.79 226.478 189.63C222.838 185.383 221.018 180.097 221.018 173.77V129.83C221.018 122.463 222.752 116.83 226.218 112.93C229.772 109.03 235.015 107.08 241.948 107.08C255.642 107.08 262.488 114.663 262.488 129.83V173.9ZM249.748 180.14C250.528 178.58 250.918 176.543 250.918 174.03V128.92C250.918 125.453 250.138 122.81 248.578 120.99C247.105 119.083 244.895 118.13 241.948 118.13C239.002 118.13 236.705 119.083 235.058 120.99C233.498 122.81 232.718 125.41 232.718 128.79V174.03C232.718 180.01 235.058 183.433 239.738 184.3C237.225 180.14 235.968 175.027 235.968 168.96H246.498C246.498 173.9 247.582 177.627 249.748 180.14ZM244.548 195.87C239.088 195.87 239.088 195.87 244.548 195.87V195.87ZM309.071 165.06V174.94C309.071 181.96 307.338 187.377 303.871 191.19C300.404 194.917 295.334 196.78 288.661 196.78C275.401 196.78 268.771 189.587 268.771 175.2V170.91H279.821V175.85C279.821 182.61 282.681 185.99 288.401 185.99C294.468 185.99 297.501 182.567 297.501 175.72V164.28C297.501 161.333 296.764 159.123 295.291 157.65C293.818 156.09 291.304 155.31 287.751 155.31H282.291V145.56H288.141C291.521 145.56 293.818 144.823 295.031 143.35C296.331 141.877 296.981 139.753 296.981 136.98V128.92C296.981 126.233 296.244 124.067 294.771 122.42C293.384 120.687 291.261 119.82 288.401 119.82C285.714 119.82 283.591 120.687 282.031 122.42C280.558 124.067 279.821 126.277 279.821 129.05V134.12H268.771V130.09C268.771 123.59 270.504 118.433 273.971 114.62C277.524 110.807 282.378 108.9 288.531 108.9C294.858 108.9 299.624 110.763 302.831 114.49C306.124 118.217 307.771 122.637 307.771 127.75V135.81C307.771 144.043 304.738 148.68 298.671 149.72V150.24C301.704 150.847 304.174 152.363 306.081 154.79C308.074 157.13 309.071 160.553 309.071 165.06ZM374.407 196H360.757L340.997 129.18H340.477C340.737 135.507 340.867 141.573 340.867 147.38V196H330.597V109.68H345.937L364.007 171.69H364.527C364.267 163.457 364.137 156.48 364.137 150.76V109.68H374.407V196ZM413.745 196H381.505V109.68H412.705V120.21H392.945V145.43H411.015V156.09H392.945V185.47H413.745V196ZM444.424 196H432.854V120.21H418.424V109.68H459.114V120.21H444.424V196ZM488.054 196H473.364L462.964 109.68H474.144L481.684 175.33H482.204L490.264 109.68H503.394L511.714 175.33H512.234L519.644 109.68H530.694L520.294 196H505.604L497.024 129.18H496.504L488.054 196ZM575.422 131.39V175.2C575.422 182.307 573.688 187.68 570.222 191.32C566.755 194.96 561.728 196.78 555.142 196.78C548.468 196.78 543.355 194.917 539.802 191.19C536.248 187.377 534.472 181.96 534.472 174.94V131.13C534.472 124.11 536.248 118.65 539.802 114.75C543.442 110.85 548.512 108.9 555.012 108.9C561.512 108.9 566.538 110.893 570.092 114.88C573.645 118.867 575.422 124.37 575.422 131.39ZM563.982 175.85V130.35C563.982 123.33 560.948 119.82 554.882 119.82C552.108 119.82 549.942 120.73 548.382 122.55C546.822 124.283 546.042 126.84 546.042 130.22V175.72C546.042 182.567 549.032 185.99 555.012 185.99C560.992 185.99 563.982 182.61 563.982 175.85ZM593.531 196H582.091V109.68H606.141C611.948 109.68 616.108 111.153 618.621 114.1C621.221 116.96 622.521 121.25 622.521 126.97V138.8C622.521 146.687 619.575 151.367 613.681 152.84V153.36C619.748 154.487 622.781 159.123 622.781 167.27V196H611.341V166.36C611.341 163.5 610.821 161.463 609.781 160.25C608.741 159.037 606.835 158.43 604.061 158.43H593.531V196ZM611.211 139.84V128.27C611.211 122.897 608.655 120.21 603.541 120.21H593.531V148.68H603.671C608.698 148.68 611.211 145.733 611.211 139.84ZM672.088 196H660.258L647.908 158.69H647.388L641.148 170.91V196H629.318V109.68H641.148V148.42H641.668L660.388 109.68H672.218L655.968 143.87L672.088 196Z" fill="#E80C88"/>
<path d="M637.469 82.512H636.125V81.904C636.125 81.0507 635.747 80.624 634.989 80.624C634.616 80.624 634.333 80.7253 634.141 80.928C633.96 81.1307 633.869 81.3973 633.869 81.728V82.144C633.869 82.5707 634.077 82.9493 634.493 83.28C634.707 83.44 635.107 83.712 635.693 84.096C636.28 84.4693 636.68 84.752 636.893 84.944C637.405 85.392 637.661 86.032 637.661 86.864V87.52C637.661 89.2373 636.781 90.096 635.021 90.096C634.115 90.096 633.448 89.8773 633.021 89.44C632.605 88.992 632.397 88.32 632.397 87.424V86.816H633.757V87.44C633.757 88.3253 634.168 88.768 634.989 88.768C635.768 88.768 636.157 88.3627 636.157 87.552V87.072C636.157 86.752 636.109 86.5013 636.013 86.32C635.917 86.1387 635.736 85.9413 635.469 85.728C635.277 85.568 634.92 85.312 634.397 84.96C633.885 84.608 633.507 84.3147 633.261 84.08C632.717 83.5147 632.445 82.864 632.445 82.128V81.664C632.445 80.928 632.653 80.3467 633.069 79.92C633.485 79.4933 634.12 79.28 634.973 79.28C635.88 79.28 636.52 79.5253 636.893 80.016C637.277 80.496 637.469 81.1733 637.469 82.048V82.512ZM639.901 90H638.461V79.376H639.901V90ZM646.15 90H644.47L642.038 81.776H641.974C642.006 82.5547 642.022 83.3013 642.022 84.016V90H640.758V79.376H642.646L644.87 87.008H644.934C644.902 85.9947 644.886 85.136 644.886 84.432V79.376H646.15V90ZM650.608 87.52V85.664H651.968V87.44C651.968 89.2107 651.152 90.096 649.52 90.096C648.698 90.096 648.074 89.8667 647.648 89.408C647.232 88.9493 647.024 88.2827 647.024 87.408V81.936C647.024 80.1653 647.84 79.28 649.472 79.28C651.136 79.28 651.968 80.16 651.968 81.92V83.184H650.608V81.92C650.608 81.056 650.245 80.624 649.52 80.624C648.805 80.624 648.448 81.0507 648.448 81.904V87.52C648.448 88.352 648.805 88.768 649.52 88.768C650.245 88.768 650.608 88.352 650.608 87.52ZM656.804 90H652.836V79.376H656.676V80.672H654.244V83.776H656.468V85.088H654.244V88.704H656.804V90ZM664.327 90H659.399V88.288C659.399 87.7547 659.452 87.3173 659.559 86.976C659.676 86.624 659.879 86.2773 660.167 85.936C660.401 85.6587 660.807 85.28 661.383 84.8C661.969 84.32 662.348 83.9787 662.519 83.776C662.807 83.4453 662.951 82.9867 662.951 82.4V81.808C662.951 81.392 662.871 81.0933 662.711 80.912C662.561 80.72 662.284 80.624 661.879 80.624C661.463 80.624 661.18 80.7253 661.031 80.928C660.881 81.1307 660.807 81.4613 660.807 81.92V82.656H659.463V82.048C659.463 81.0453 659.617 80.336 659.927 79.92C660.247 79.4933 660.903 79.28 661.895 79.28C662.833 79.28 663.468 79.472 663.799 79.856C664.14 80.24 664.311 80.8747 664.311 81.76V82.464C664.311 83.2533 664.087 83.904 663.639 84.416C663.447 84.6293 663.063 84.9867 662.487 85.488C661.911 85.9893 661.537 86.336 661.367 86.528C661.004 86.944 660.823 87.4347 660.823 88V88.736H664.327V90ZM670.158 82.656V86.72C670.158 88.9707 669.331 90.096 667.678 90.096C666.846 90.096 666.211 89.808 665.774 89.232C665.336 88.6453 665.118 87.7973 665.118 86.688V82.688C665.118 81.5787 665.336 80.736 665.774 80.16C666.211 79.5733 666.846 79.28 667.678 79.28C669.331 79.28 670.158 80.4053 670.158 82.656ZM668.75 86.736V82.64C668.75 81.2853 668.382 80.608 667.646 80.608C666.91 80.608 666.542 81.2907 666.542 82.656V86.72C666.542 88.0853 666.91 88.768 667.646 88.768C668.382 88.768 668.75 88.0907 668.75 86.736ZM675.967 90H671.039V88.288C671.039 87.7547 671.093 87.3173 671.199 86.976C671.317 86.624 671.519 86.2773 671.807 85.936C672.042 85.6587 672.447 85.28 673.023 84.8C673.61 84.32 673.989 83.9787 674.159 83.776C674.447 83.4453 674.591 82.9867 674.591 82.4V81.808C674.591 81.392 674.511 81.0933 674.351 80.912C674.202 80.72 673.925 80.624 673.519 80.624C673.103 80.624 672.821 80.7253 672.671 80.928C672.522 81.1307 672.447 81.4613 672.447 81.92V82.656H671.103V82.048C671.103 81.0453 671.258 80.336 671.567 79.92C671.887 79.4933 672.543 79.28 673.535 79.28C674.474 79.28 675.109 79.472 675.439 79.856C675.781 80.24 675.951 80.8747 675.951 81.76V82.464C675.951 83.2533 675.727 83.904 675.279 84.416C675.087 84.6293 674.703 84.9867 674.127 85.488C673.551 85.9893 673.178 86.336 673.007 86.528C672.645 86.944 672.463 87.4347 672.463 88V88.736H675.967V90ZM681.718 86.192V87.408C681.718 88.272 681.505 88.9387 681.078 89.408C680.652 89.8667 680.028 90.096 679.206 90.096C677.574 90.096 676.758 89.2107 676.758 87.44V86.912H678.118V87.52C678.118 88.352 678.47 88.768 679.174 88.768C679.921 88.768 680.294 88.3467 680.294 87.504V86.096C680.294 85.7333 680.204 85.4613 680.022 85.28C679.841 85.088 679.532 84.992 679.094 84.992H678.422V83.792H679.142C679.558 83.792 679.841 83.7013 679.99 83.52C680.15 83.3387 680.23 83.0773 680.23 82.736V81.744C680.23 81.4133 680.14 81.1467 679.958 80.944C679.788 80.7307 679.526 80.624 679.174 80.624C678.844 80.624 678.582 80.7307 678.39 80.944C678.209 81.1467 678.118 81.4187 678.118 81.76V82.384H676.758V81.888C676.758 81.088 676.972 80.4533 677.398 79.984C677.836 79.5147 678.433 79.28 679.19 79.28C679.969 79.28 680.556 79.5093 680.95 79.968C681.356 80.4267 681.558 80.9707 681.558 81.6V82.592C681.558 83.6053 681.185 84.176 680.438 84.304V84.368C680.812 84.4427 681.116 84.6293 681.35 84.928C681.596 85.216 681.718 85.6373 681.718 86.192Z" fill="white"/>
<path d="M210 96.5L116.5 23H3" stroke="white"/>
<rect x="210.5" y="97.5" width="473" height="112" stroke="white"/>
</svg>
