<svg width="62" height="36" viewBox="0 0 62 36" fill="none" xmlns="http://www.w3.org/2000/svg">
<path fill-rule="evenodd" clip-rule="evenodd" d="M36 17.9999C36 27.9411 27.9411 36 18 36C8.05886 36 0 27.9411 0 17.9999C0 8.05884 8.05886 0 18 0C27.9411 0 36 8.05884 36 17.9999ZM9.89847 18.1525C9.89847 15.6194 9.89847 14.3529 10.3288 13.3599C10.8559 12.1433 11.8263 11.1729 13.0428 10.6458C14.0358 10.2155 15.3024 10.2155 17.8355 10.2155C20.3686 10.2155 21.6351 10.2155 22.6281 10.6458C23.8447 11.1729 24.8151 12.1433 25.3422 13.3599C25.7725 14.3529 25.7725 15.6194 25.7725 18.1524C25.7725 20.6855 25.7725 21.9522 25.3422 22.9451C24.8151 24.1617 23.8447 25.1321 22.6281 25.6592C21.6351 26.0895 20.3686 26.0895 17.8355 26.0895C15.3025 26.0895 14.0358 26.0895 13.0428 25.6592C11.8263 25.1321 10.8559 24.1617 10.3288 22.9451C9.89847 21.9522 9.89847 20.6856 9.89847 18.1525Z" fill="white"/>
<path d="M37.1523 0.298218H48.9846C52.42 0.298218 55.2343 1.72107 57.1478 3.9901C58.9425 6.11835 59.7334 8.7199 59.9418 11.0079C60.11 12.8523 59.9316 14.8241 59.3298 16.6227C61.1626 19.2006 61.7264 22.263 61.4582 24.8459C61.1859 27.4686 60.0709 30.2294 57.8623 32.3642C55.5905 34.5601 52.4769 35.7869 48.8332 35.7869H39.6751V26.098H48.971C49.6659 26.098 50.0133 26.098 50.2874 25.9845C50.6528 25.8331 50.9432 25.5427 51.0945 25.1774C51.208 24.9033 51.208 24.5559 51.208 23.861C51.208 23.1661 51.208 22.8187 51.0945 22.5446C50.9432 22.1792 50.6528 21.8889 50.2874 21.7375C50.0133 21.624 49.6659 21.624 48.971 21.624H39.6751V14.4657H47.4797C48.1746 14.4657 48.522 14.4657 48.7961 14.3522C49.1615 14.2009 49.4518 13.9105 49.6032 13.5451C49.7167 13.271 49.7167 12.9236 49.7167 12.2287C49.7167 11.5339 49.7167 11.1865 49.6032 10.9124C49.4518 10.547 49.1615 10.2566 48.7961 10.1053C48.522 9.99176 48.1746 9.99176 47.4797 9.99176H37.1523V0.298218Z" fill="white"/>
<path fill-rule="evenodd" clip-rule="evenodd" d="M24.0125 33.1654C18.9037 30.2004 16.0732 24.7378 16.0732 16.5536H25.7668C25.7668 22.3505 27.5791 24.0275 28.8783 24.7815C30.7928 25.8926 33.0699 26.098 37.2459 26.098V35.7916C33.8946 35.7916 28.5059 35.7732 24.0125 33.1654Z" fill="#FE0199"/>
</svg>
