<svg width="64" height="64" viewBox="0 0 64 64" fill="none" xmlns="http://www.w3.org/2000/svg">
<rect width="64" height="64" rx="10" fill="black"/>
<path fill-rule="evenodd" clip-rule="evenodd" d="M37.0136 31.5067C37.0136 40.0709 30.0709 47.0136 21.5068 47.0136C12.9426 47.0136 6 40.0709 6 31.5067C6 22.9426 12.9426 16 21.5068 16C30.0709 16 37.0136 22.9426 37.0136 31.5067ZM14.5274 31.6382C14.5274 29.456 14.5274 28.3648 14.8981 27.5094C15.3522 26.4613 16.1882 25.6253 17.2362 25.1713C18.0917 24.8005 19.1828 24.8005 21.3651 24.8005C23.5473 24.8005 24.6384 24.8005 25.4939 25.1713C26.5419 25.6253 27.3779 26.4613 27.832 27.5094C28.2027 28.3648 28.2027 29.456 28.2027 31.6381C28.2027 33.8203 28.2027 34.9115 27.832 35.767C27.3779 36.815 26.5419 37.651 25.4939 38.1051C24.6384 38.4758 23.5473 38.4758 21.3651 38.4758C19.1829 38.4758 18.0917 38.4758 17.2362 38.1051C16.1882 37.651 15.3522 36.815 14.8981 35.767C14.5274 34.9115 14.5274 33.8204 14.5274 31.6382Z" fill="white"/>
<path d="M38.0063 16.257H48.1997C51.1593 16.257 53.5838 17.4827 55.2322 19.4375C56.7783 21.2709 57.4596 23.5121 57.6392 25.4832C57.7841 27.0721 57.6304 28.7709 57.112 30.3203C58.6909 32.5412 59.1766 35.1794 58.9456 37.4045C58.711 39.664 57.7504 42.0423 55.8478 43.8814C53.8906 45.7731 51.2083 46.83 48.0693 46.83H40.1796V38.4831H48.188C48.7866 38.4831 49.0859 38.4831 49.3221 38.3854C49.6368 38.255 49.887 38.0048 50.0174 37.6901C50.1151 37.4539 50.1151 37.1546 50.1151 36.556C50.1151 35.9574 50.1151 35.6581 50.0174 35.422C49.887 35.1072 49.6368 34.8571 49.3221 34.7267C49.0859 34.6289 48.7866 34.6289 48.188 34.6289H40.1796V28.4621H46.9033C47.5019 28.4621 47.8012 28.4621 48.0373 28.3643C48.3521 28.2339 48.6022 27.9838 48.7326 27.669C48.8304 27.4329 48.8304 27.1336 48.8304 26.535C48.8304 25.9363 48.8304 25.637 48.7326 25.4009C48.6022 25.0861 48.3521 24.836 48.0373 24.7056C47.8012 24.6078 47.5019 24.6078 46.9033 24.6078H38.0063V16.257Z" fill="white"/>
<path fill-rule="evenodd" clip-rule="evenodd" d="M26.6867 44.5716C22.2856 42.0173 19.8472 37.3113 19.8472 30.2607H28.1981C28.1981 35.2547 29.7593 36.6995 30.8786 37.349C32.5279 38.3062 34.4895 38.4831 38.0871 38.4831V46.834C35.2001 46.834 30.5578 46.8182 26.6867 44.5716Z" fill="#FE0199"/>
</svg>
